# xmcd CD database file
#
# Track frame offsets:
#	150
#	11479
#	25863
#	43036
#	59030
#	72528
#	87178
#	98634
#	113016
#	128015
#	139784
#	152456
#	173816
#	184644
#	199695
#	213126
#	226345
#	239239
#	252299
#	265240
#	278003
#	296355
#	309963
#
# Disc length: 4309 seconds
#
# Revision: 0
# Processed by: cddbd v1.5.2PL0 Copyright (c) Steve Scherf et al.
# Submitted via: CDex 1.51
#
DISCID=3e10d317
DTITLE=Lester Young - The Essence Of Lester Young
DYEAR=2011
DGENRE=Jazz
TTITLE0=I'm Confession
TTITLE1=These Foolish Things
TTITLE2=Up 'n' Adam
TTITLE3=Stardust
TTITLE4=On The Sunny Side Of The Street
TTITLE5=Lester Leaps In
TTITLE6=Me Myself And I
TTITLE7=Jumpin' With Symphony Sid
TTITLE8=Jump Lester Jump
TTITLE9=Love Come Back To Me
TTITLE10=When You're Smiling
TTITLE11=Tea For Two
TTITLE12=Sunday
TTITLE13=Ad Lib Blues
TTITLE14=All Of Me
TTITLE15=Broadway
TTITLE16=I Want A Little Girl
TTITLE17=Poor Little Plaything
TTITLE18=Just Living Around
TTITLE19=Jump And Five
TTITLE20=I've Found A Little Baby
TTITLE21=Easy Living
TTITLE22=Way Down Yonder In New Orleans
EXTD=YEAR: 2011
EXTT0=
EXTT1=
EXTT2=
EXTT3=
EXTT4=
EXTT5=
EXTT6=
EXTT7=
EXTT8=
EXTT9=
EXTT10=
EXTT11=
EXTT12=
EXTT13=
EXTT14=
EXTT15=
EXTT16=
EXTT17=
EXTT18=
EXTT19=
EXTT20=
EXTT21=
EXTT22=
PLAYORDER=
